<svg width="598" height="359" xmlns="http://www.w3.org/2000/svg" xmlns:xlink="http://www.w3.org/1999/xlink" overflow="hidden"><defs><filter id="fx0" x="-10%" y="-10%" width="120%" height="120%" filterUnits="userSpaceOnUse" primitiveUnits="userSpaceOnUse"><feComponentTransfer color-interpolation-filters="sRGB"><feFuncR type="discrete" tableValues="0 0"/><feFuncG type="discrete" tableValues="0 0"/><feFuncB type="discrete" tableValues="0 0"/><feFuncA type="linear" slope="0.431373" intercept="0"/></feComponentTransfer><feGaussianBlur stdDeviation="1.83714 1.83714"/></filter><clipPath id="clip1"><rect x="246" y="265" width="598" height="359"/></clipPath><clipPath id="clip2"><rect x="105" y="90" width="385" height="133"/></clipPath></defs><g clip-path="url(#clip1)" transform="translate(-246 -265)"><g clip-path="url(#clip2)" filter="url(#fx0)" transform="translate(245 265)"><g><path d="M60.2637 1.61133C24.1699 1.61133 6.12305-18.0469 6.12305-57.3633 6.12305-76.001 10.675-90.4358 19.7791-100.668 28.8831-110.9 41.7334-116.016 58.3301-116.016 66.0107-116.016 72.7783-114.78 78.6328-112.31 84.4873-109.839 88.8647-106.321 91.7651-101.755L79.8413-87.6562C77.4243-90.9326 74.3494-93.457 70.6165-95.2295 66.8835-97.0019 62.8418-97.8882 58.4912-97.8882 48.8232-97.8882 41.062-94.4372 35.2075-87.5354 29.353-80.6335 26.4258-70.8447 26.4258-58.1689 26.4258-30.4004 38.6182-16.5161 63.0029-16.5161 70.791-16.5161 78.4717-18.1274 86.0449-21.3501L89.751-3.86719C80.4053-0.214844 70.5762 1.61133 60.2637 1.61133ZM141.225 1.61133C134.726 1.61133 128.509 1.07422 122.574 0 116.639-1.07422 111.255-2.63184 106.421-4.67285L108.999-24.2505C114.907-21.7261 120.708-19.8059 126.401-18.49 132.095-17.1741 137.466-16.5161 142.514-16.5161 148.96-16.5161 153.834-17.6575 157.137-19.9402 160.441-22.2229 162.092-25.5664 162.092-29.9707 162.092-35.7178 158.816-40.0952 152.263-43.103L134.458-51.5625C126.455-55.3223 120.292-59.9683 115.968-65.5005 111.644-71.0327 109.482-77.3975 109.482-84.5947 109.482-94.585 112.665-102.319 119.029-107.798 125.394-113.276 134.404-116.016 146.059-116.016 153.364-116.016 160.091-114.821 166.241-112.43 172.391-110.04 178.017-106.428 183.12-101.594L169.827-86.9312C165.691-90.5835 161.676-93.3362 157.782-95.1892 153.888-97.0422 150.007-97.9687 146.14-97.9688 141.091-97.9687 137.17-96.8274 134.377-94.5447 131.584-92.262 130.188-88.9453 130.188-84.5947 130.188-81.5869 131.141-78.9417 133.048-76.6589 134.955-74.3762 137.707-72.3218 141.306-70.4956L157.339-62.5195C165.556-58.4375 171.854-53.7244 176.232-48.3801 180.609-43.0359 182.798-36.8726 182.798-29.8901 182.798-19.6313 179.266-11.8164 172.203-6.44531 165.14-1.07422 154.814 1.61133 141.225 1.61133ZM224.04 0 224.04-17.8857 245.713-17.8857C252.05-17.832 256.978-19.2822 260.497-22.2363 264.015-25.1904 265.747-29.3262 265.693-34.6436 265.747-40.0146 263.934-44.1638 260.255-47.0911 256.576-50.0183 251.352-51.4819 244.585-51.4819L224.362-51.4819 222.429-59.5386 252.641-59.5386C263.222-59.5386 271.4-57.0947 277.174-52.207 282.948-47.3193 285.835-40.3906 285.835-31.4209 285.835-21.4307 282.746-13.6963 276.57-8.21777 270.393-2.73926 261.665 0 250.385 0ZM205.752 0 205.752-114.404 225.168-114.404 225.168 0ZM218.562-56.2354 218.562-64.1309 250.708-64.1309 250.788-56.2354ZM224.04-61.311 224.04-69.3677 240.879-69.3677C246.303-69.3677 250.453-70.5627 253.326-72.9529 256.2-75.343 257.636-78.8208 257.636-83.3862 257.636-87.6831 256.119-90.946 253.084-93.175 250.05-95.404 245.605-96.5185 239.751-96.5186L224.362-96.5186 222.429-114.404 240.556-114.404C252.373-114.404 261.53-111.92 268.029-106.952 274.529-101.984 277.778-94.9341 277.778-85.8032 277.778-77.9077 275.039-71.8518 269.56-67.6355 264.082-63.4192 256.347-61.311 246.357-61.311ZM334.892 1.61133C328.393 1.61133 322.176 1.07422 316.241 0 310.306-1.07422 304.921-2.63184 300.087-4.67285L302.666-24.2505C308.574-21.7261 314.375-19.8059 320.068-18.49 325.761-17.1741 331.132-16.5161 336.181-16.5161 342.626-16.5161 347.501-17.6575 350.804-19.9402 354.107-22.2229 355.759-25.5664 355.759-29.9707 355.759-35.7178 352.482-40.0952 345.93-43.103L328.125-51.5625C320.122-55.3223 313.958-59.9683 309.635-65.5005 305.311-71.0327 303.149-77.3975 303.149-84.5947 303.149-94.585 306.331-102.319 312.696-107.798 319.061-113.276 328.071-116.016 339.726-116.016 347.031-116.016 353.758-114.821 359.908-112.43 366.058-110.04 371.684-106.428 376.787-101.594L363.493-86.9312C359.357-90.5835 355.343-93.3362 351.448-95.1892 347.554-97.0422 343.674-97.9687 339.807-97.9688 334.758-97.9687 330.837-96.8274 328.044-94.5447 325.251-92.262 323.854-88.9453 323.854-84.5947 323.854-81.5869 324.808-78.9417 326.715-76.6589 328.621-74.3762 331.374-72.3218 334.973-70.4956L351.005-62.5195C359.223-58.4375 365.521-53.7244 369.898-48.3801 374.276-43.0359 376.464-36.8726 376.464-29.8901 376.464-19.6313 372.933-11.8164 365.87-6.44531 358.807-1.07422 348.481 1.61133 334.892 1.61133Z" fill="#2F5597" transform="translate(106.089 214)"/></g></g><text fill="#2F5597" font-family="Cascadia Code SemiBold,Cascadia Code SemiBold_MSFontService,sans-serif" font-weight="600" font-size="165" transform="translate(347.192 475)">CSBS</text></g></svg>